<svg xmlns="http://www.w3.org/2000/svg" fill="none" viewBox="0 0 96 96"><path fill="#5BBBFC" d="M15.043 32.636l63.626-20.298c3.085-.984 6 1.915 5.033 5.005l-19.925 63.68c-1.114 3.563-6.07 3.792-7.508.348L44.643 53.539a4 4 0 0 0-2.19-2.166L14.758 40.154c-3.47-1.405-3.28-6.38.286-7.518z"/><path fill="#FFD140" d="M28.649 45.256l33.324-12.497a1 1 0 0 1 1.292 1.276L51.239 67.34a1 1 0 0 1-.941.66H29a1 1 0 0 1-1-1V46.192a1 1 0 0 1 .649-.936z"/><path fill="#FAF8F5" d="M50.655 67.933L44.643 53.54a4 4 0 0 0-2.19-2.166l-14.258-5.775a1 1 0 0 1 .454-.342L61.973 32.76a1 1 0 0 1 1.292 1.276L51.239 67.34a1.002 1.002 0 0 1-.584.594z"/></svg>